<svg width="34" height="33" viewBox="0 0 34 33" fill="none" xmlns="http://www.w3.org/2000/svg">
<g id="Icon House">
<g id="Vector">
<path d="M33.0269 16.5C33.0269 25.6127 25.6396 33 16.5269 33C7.41416 33 0.0268555 25.6127 0.0268555 16.5C0.0268555 7.3873 7.41416 0 16.5269 0C25.6396 0 33.0269 7.3873 33.0269 16.5Z" fill="#667294"/>
<path fill-rule="evenodd" clip-rule="evenodd" d="M15.1119 6.54689C15.3126 6.33385 15.6122 6.33385 15.8129 6.54689L20.0709 11.0673C20.1864 11.19 20.2527 11.3671 20.2527 11.5533V23.8231C20.2527 24.1797 20.0144 24.4689 19.7204 24.4689H11.2043C10.9104 24.4689 10.6721 24.1797 10.6721 23.8231V11.5533C10.6721 11.3671 10.7383 11.19 10.8538 11.0673L15.1119 6.54689ZM11.7366 11.8464V23.1773H19.1882V11.8464L15.4624 7.89097L11.7366 11.8464Z" fill="#FAFAFA"/>
<path fill-rule="evenodd" clip-rule="evenodd" d="M19.1882 14.7822C19.1882 14.4255 19.4265 14.1364 19.7205 14.1364H25.043C25.337 14.1364 25.5753 14.4255 25.5753 14.7822V23.8231C25.5753 24.1797 25.337 24.4688 25.043 24.4688L19.7204 24.4689C19.4265 24.4689 19.1882 24.1797 19.1882 23.8231C19.1882 23.4664 19.4265 23.1773 19.7205 23.1773H24.5108V15.428H19.7205C19.4265 15.428 19.1882 15.1388 19.1882 14.7822Z" fill="#FAFAFA"/>
<path fill-rule="evenodd" clip-rule="evenodd" d="M15.4624 20.5942C15.7563 20.5942 15.9946 20.8833 15.9946 21.24V23.8231C15.9946 24.1797 15.7563 24.4688 15.4624 24.4688C15.1684 24.4688 14.9301 24.1797 14.9301 23.8231V21.24C14.9301 20.8833 15.1684 20.5942 15.4624 20.5942Z" fill="#FAFAFA"/>
<path fill-rule="evenodd" clip-rule="evenodd" d="M13.3333 17.3653C13.3333 17.0086 13.5716 16.7195 13.8656 16.7195H17.0591C17.3531 16.7195 17.5914 17.0086 17.5914 17.3653C17.5914 17.722 17.3531 18.0111 17.0591 18.0111H13.8656C13.5716 18.0111 13.3333 17.722 13.3333 17.3653Z" fill="#FAFAFA"/>
<path fill-rule="evenodd" clip-rule="evenodd" d="M13.3333 13.4906C13.3333 13.134 13.5716 12.8449 13.8656 12.8449H17.0591C17.3531 12.8449 17.5914 13.134 17.5914 13.4906C17.5914 13.8473 17.3531 14.1364 17.0591 14.1364H13.8656C13.5716 14.1364 13.3333 13.8473 13.3333 13.4906Z" fill="#FAFAFA"/>
</g>
</g>
</svg>
