<svg width="35" height="35" viewBox="0 0 35 35" fill="none" xmlns="http://www.w3.org/2000/svg">
<g id="Icon">
<path id="Ellipse 9" d="M34.6179 17.5C34.6179 26.8961 27.0776 34.5131 17.7761 34.5131C8.47465 34.5131 0.934326 26.8961 0.934326 17.5C0.934326 8.10393 8.47465 0.486908 17.7761 0.486908C27.0776 0.486908 34.6179 8.10393 34.6179 17.5Z" fill="#667294"/>
<path id="Vector" d="M16.8732 20.1211L16.3535 24.3209H12.6975L11.999 18.676H9.62689V16.5592C9.62708 15.3271 10.0831 14.1396 10.9055 13.2297C11.7278 12.3198 12.8571 11.7532 14.0717 11.6411C15.2864 11.5291 16.4986 11.8796 17.4705 12.624C18.4424 13.3684 19.1038 14.4528 19.325 15.6645M21.7069 18.0946V17.1773C21.7069 16.803 21.8541 16.4441 22.1161 16.1794C22.378 15.9148 22.7334 15.7661 23.1039 15.7661H23.6795C24.05 15.7661 24.4053 15.9148 24.6673 16.1794C24.9293 16.4441 25.0765 16.803 25.0765 17.1773V18.0946M14.5178 11.6199C15.2589 11.6199 15.9695 11.3225 16.4935 10.7932C17.0175 10.2639 17.3119 9.54601 17.3119 8.79745C17.3119 8.04889 17.0175 7.33099 16.4935 6.80168C15.9695 6.27237 15.2589 5.97501 14.5178 5.97501C13.7768 5.97501 13.0661 6.27237 12.5422 6.80168C12.0182 7.33099 11.7238 8.04889 11.7238 8.79745C11.7238 9.54601 12.0182 10.2639 12.5422 10.7932C13.0661 11.3225 13.7768 11.6199 14.5178 11.6199ZM19.0791 19.3393C19.0791 18.652 19.6309 18.0946 20.3113 18.0946H26.4749C27.1552 18.0946 27.7071 18.652 27.7071 19.3407V23.0762C27.7071 23.4063 27.5772 23.7229 27.3462 23.9564C27.1151 24.1898 26.8017 24.3209 26.4749 24.3209H20.3113C19.9845 24.3209 19.6711 24.1898 19.44 23.9564C19.2089 23.7229 19.0791 23.4063 19.0791 23.0762V19.3393Z" stroke="#FAFAFA" stroke-linecap="round" stroke-linejoin="round"/>
</g>
</svg>
